# Blender 5.2.0 LTS
# www.blender.org
mtllib hull.mtl
o wall
v 5.000000 -0.000000 10.000000
v -5.000000 -0.000000 10.000001
v 5.000000 5.000000 9.999999
v -5.000000 5.000000 10.000000
v 6.000000 2.500000 10.000000
v -6.000000 2.500000 10.000001
vn -0.0000 -0.0000 -1.0000
vt 0.083333 0.000000
vt 0.916667 0.000000
vt 0.916667 0.416667
vt 0.083333 0.416667
vt 0.000000 0.208333
vt 1.000000 0.208333
s 0
usemtl wall_mtl
f 1/1/1 2/2/1 4/3/1 3/4/1
f 1/1/1 3/4/1 5/5/1
f 4/3/1 2/2/1 6/6/1
o door
v -1.500000 0.000000 10.000000
v -1.250000 0.000000 9.500000
v 1.500000 0.000000 10.000000
v 1.250000 0.000000 9.500000
v -1.000000 4.000000 10.000000
v -1.500000 3.500000 10.000000
v -1.250000 3.396447 9.500000
v -0.896447 3.750000 9.500000
v 1.500000 3.500000 10.000000
v 1.000000 4.000000 10.000000
v 0.896447 3.750000 9.500000
v 1.250000 3.396447 9.500000
v 1.500000 0.000000 9.500000
v -1.500000 0.000000 9.500000
v -1.000000 4.000000 9.500000
v -1.500000 3.500000 9.500000
v 1.500000 3.500000 9.500000
v 1.000000 4.000000 9.500000
v 1.250000 0.000000 9.750000
v -1.250000 0.000000 9.750000
v -0.896447 3.750000 9.750000
v -1.250000 3.396447 9.750000
v 1.250000 3.396447 9.750000
v 0.896447 3.750000 9.750000
vn -0.7071 0.7071 -0.0000
vn 0.7071 0.7071 -0.0000
vn -1.0000 -0.0000 -0.0000
vn -0.0000 1.0000 -0.0000
vn 1.0000 -0.0000 -0.0000
vn -0.0000 -0.0000 -1.0000
vn 0.7071 -0.7071 -0.0000
vn -0.0000 -1.0000 -0.0000
vn -0.7071 -0.7071 -0.0000
vt 0.625000 0.000000
vt 0.625000 0.270833
vt 0.593750 0.250000
vt 0.593750 0.000000
vt 0.652778 0.486111
vt 0.652778 0.763889
vt 0.593750 0.750000
vt 0.593750 0.500000
vt 0.375000 0.000000
vt 0.375000 0.250000
vt 0.833333 0.500000
vt 0.833333 0.750000
vt 0.592437 0.483886
vt 0.390789 0.479222
vt 0.375000 0.500000
vt 0.375000 0.750000
vt 0.611049 0.287589
vt 0.587865 0.267551
vt 0.628549 0.467623
vt 0.390770 0.270855
s 0
usemtl door_mtl
f 11/7/2 21/8/2 22/9/2 12/10/2
f 24/11/3 16/12/3 15/13/3 23/14/3
f 7/15/4 12/10/4 22/9/4 20/16/4
f 24/11/5 21/17/5 11/18/5 16/12/5
f 18/19/4 10/20/4 25/20/4 29/19/4
f 19/21/6 23/14/6 15/13/6 9/22/6
f 14/23/7 13/24/7 22/9/7 21/8/7
f 18/19/7 17/25/7 24/11/7 23/14/7
f 13/24/7 8/26/7 20/16/7 22/9/7
f 17/25/7 14/23/7 21/8/7 24/11/7
f 10/20/7 18/19/7 23/14/7 19/21/7
f 26/26/7 28/24/7 27/23/7 30/25/7 29/19/7 25/20/7
f 8/26/6 13/24/6 28/24/6 26/26/6
f 13/24/8 14/23/8 27/23/8 28/24/8
f 14/23/9 17/25/9 30/25/9 27/23/9
f 17/25/10 18/19/10 29/19/10 30/25/10
o bulkhead
v -4.500000 0.250000 0.200000
v -4.500000 4.750000 0.200000
v -4.500000 0.250000 -0.300000
v -4.500000 4.750000 -0.300000
v 4.500000 0.250000 0.200000
v 4.500000 4.750000 0.200000
v 4.500000 0.250000 -0.300000
v 4.500000 4.750000 -0.300000
v -5.000000 0.000000 0.200000
v -5.000000 5.000000 0.200000
v -5.000000 5.000000 -0.300000
v -5.000000 0.000000 -0.300000
v 5.000000 0.000000 -0.300000
v 5.000000 5.000000 -0.300000
v 5.000000 5.000000 0.200000
v 5.000000 0.000000 0.200000
v -4.500000 4.750000 0.200000
v -4.500000 0.250000 0.200000
v 4.500000 0.250000 0.200000
v 4.500000 4.750000 0.200000
v -6.000000 2.500000 0.200000
v -6.000000 2.500000 -0.300000
v -5.000000 2.500000 0.200000
v -5.000000 2.500000 -0.300000
v -5.000000 2.500000 0.200000
v 6.000000 2.500000 -0.300000
v 6.000000 2.500000 0.200000
v 5.000000 2.500000 -0.300000
v 5.000000 2.500000 0.200000
v 5.000000 2.500000 0.200000
vn -0.9762 0.2169 -0.0000
vn -0.0000 -0.0000 1.0000
vn -0.0000 -0.0000 -1.0000
vn -0.0000 1.0000 -0.0000
vn -0.0000 -1.0000 -0.0000
vn 0.9762 -0.2169 -0.0000
vn 0.9762 0.2169 -0.0000
vn -0.9762 -0.2169 -0.0000
vt 0.500000 0.487500
vt 0.400000 0.487500
vt 0.500000 0.987500
vt 0.600000 0.987500
vt 0.625000 1.000000
vt 0.500000 1.000000
vt 0.500000 0.262500
vt 0.400000 0.262500
vt 0.375000 0.250000
vt 0.500000 0.250000
vt 0.375000 0.500000
vt 0.600000 0.487500
vt 0.600000 0.262500
vt 0.625000 0.250000
vt 0.625000 0.500000
vt 0.500000 0.500000
vt 0.500000 0.762500
vt 0.400000 0.762500
vt 0.375000 0.750000
vt 0.500000 0.750000
vt 0.400000 0.987500
vt 0.375000 1.000000
vt 0.600000 0.762500
vt 0.625000 0.750000
s 0
usemtl bulkhead_mtl
f 58/27/11 37/28/11 49/28/11 60/27/11
f 53/29/12 32/30/12 40/31/12 51/32/12
f 54/33/13 33/34/13 42/35/13 52/36/13
f 33/34/13 37/28/13 43/37/13 42/35/13
f 38/38/13 34/39/13 41/40/13 44/41/13
f 58/27/13 38/38/13 44/41/13 56/42/13
f 59/43/12 35/44/12 46/45/12 57/46/12
f 35/44/12 31/47/12 39/48/12 46/45/12
f 32/30/12 36/49/12 45/50/12 40/31/12
f 37/28/14 33/34/14 48/34/14 49/28/14
f 34/39/15 38/38/15 50/38/15 47/39/15
f 54/33/16 34/39/16 47/39/16 55/33/16
f 33/34/17 54/33/17 55/33/17 48/34/17
f 34/39/13 54/33/13 52/36/13 41/40/13
f 31/47/12 53/29/12 51/32/12 39/48/12
f 36/49/12 59/43/12 57/46/12 45/50/12
f 37/28/13 58/27/13 56/42/13 43/37/13
f 38/38/18 58/27/18 60/27/18 50/38/18
o hull
v -5.000000 0.000000 10.000000
v -5.000000 5.000000 10.000000
v -5.000000 0.000000 -10.000000
v -5.000000 5.000000 -10.000000
v 5.000000 0.000000 10.000000
v 5.000000 5.000000 10.000000
v 5.000000 0.000000 -10.000000
v 5.000000 5.000000 -10.000000
v -6.000000 2.500000 10.000000
v -6.000000 2.500000 -10.000000
v 6.000000 2.500000 -10.000000
v 6.000000 2.500000 10.000000
v -3.000000 2.500000 -12.000000
v 3.000000 2.500000 -12.000000
vn -0.9285 0.3714 -0.0000
vn 0.5415 0.2166 -0.8123
vn 0.9285 0.3714 -0.0000
vn -0.0000 -0.0000 1.0000
vn -0.0000 -1.0000 -0.0000
vn -0.0000 1.0000 -0.0000
vn 0.9285 -0.3714 -0.0000
vn -0.9285 -0.3714 -0.0000
vn -0.0000 0.6247 -0.7809
vn -0.5415 -0.2166 -0.8123
vn 0.5415 -0.2166 -0.8123
vn -0.5415 0.2166 -0.8123
vn -0.0000 -0.6247 -0.7809
s 0
f 69//19 62//19 64//19 70//19
f 68//20 71//20 74//20
f 71//21 68//21 66//21 72//21
f 72//22 66//22 62//22 69//22
f 63//23 67//23 65//23 61//23
f 68//24 64//24 62//24 66//24
f 65//22 72//22 69//22 61//22
f 67//25 71//25 72//25 65//25
f 61//26 69//26 70//26 63//26
f 73//27 64//27 68//27 74//27
f 63//28 70//28 73//28
f 71//29 67//29 74//29
f 70//30 64//30 73//30
f 67//31 63//31 73//31 74//31
