# Blender 5.2.0 LTS
# www.blender.org
mtllib screen.mtl
o Cube
v -0.637500 -0.510000 -0.030000
v -0.637500 0.510000 -0.030000
v 0.637500 -0.510000 -0.030000
v 0.637500 0.510000 -0.030000
v -0.765000 -0.637500 0.025000
v -0.765000 0.637500 0.025000
v 0.765000 0.637500 0.025000
v 0.765000 -0.637500 0.025000
v -0.765000 -0.637500 0.025000
v 0.765000 -0.637500 0.025000
v -0.565000 -0.437500 -0.200000
v -0.765000 -0.637500 0.000000
v -0.565000 0.437500 -0.200000
v -0.765000 0.637500 0.000000
v 0.565000 -0.437500 -0.200000
v 0.765000 -0.637500 0.000000
v 0.765000 0.637500 0.000000
v 0.565000 0.437500 -0.200000
vn -0.0000 -0.0000 1.0000
vn 0.3961 -0.0000 0.9182
vn -0.3961 -0.0000 0.9182
vn -0.0000 0.3961 0.9182
vn -0.0000 -0.3961 0.9182
vn -0.0000 -1.0000 -0.0000
vn -0.7071 -0.0000 -0.7071
vn -0.0000 -0.7071 -0.7071
vn -0.0000 0.7071 -0.7071
vn 0.7071 -0.0000 -0.7071
vn -1.0000 -0.0000 -0.0000
vn -0.0000 -0.0000 -1.0000
vn -0.0000 1.0000 -0.0000
vn 1.0000 -0.0000 -0.0000
vt 0.383459 0.479323
vt 0.000000 0.479323
vt 0.000000 0.000000
vt 0.383459 0.000000
vt 0.648324 0.856203
vt 0.648324 0.472744
vt 0.700526 0.424812
vt 0.700526 0.904135
vt 0.052202 0.527256
vt 0.052202 0.910714
vt -0.000000 0.958647
vt -0.000000 0.479323
vt 0.925070 0.527256
vt 0.925070 0.047932
vt 0.977272 -0.000000
vt 0.977272 0.575188
vt 0.648324 0.472744
vt 0.648324 0.952068
vt 0.596122 1.000000
vt 0.596122 0.424812
vt 0.977272 0.575188
vt 0.977272 0.000000
vt 0.977272 0.000000
vt 0.489790 0.500000
vt 0.489790 0.828947
vt 0.383459 0.904135
vt 0.383459 0.424812
vt 0.818738 -0.000000
vt 0.818738 0.575188
vt 0.712406 0.500000
vt 0.712406 0.075188
vt 0.818738 0.000000
vt 0.925070 0.075188
vt 0.925070 0.500000
vt 0.596122 0.904135
vt 0.489791 0.828947
vt 0.489791 0.500000
vt 0.986670 0.000000
vt 0.986670 0.575188
vt 0.703008 0.904135
vt 0.703008 0.424812
vt 0.712406 0.424812
vt 0.712406 0.904135
vt 0.383459 0.424812
vt 0.383459 0.000000
vt 0.712406 0.000000
vt 0.996069 0.000000
vt 0.996069 0.575188
vt 0.986670 0.575188
vt 0.986670 0.000000
vt 0.052202 0.958647
vt 0.052202 0.479323
vt 0.061600 0.479323
vt 0.061600 0.958647
s 0
f 3/1/1 4/2/1 2/3/1 1/4/1
f 1/5/2 2/6/2 6/7/2 5/8/2
f 4/9/3 3/10/3 8/11/3 7/12/3
f 3/13/4 1/14/4 5/15/4 8/16/4
f 2/17/5 4/18/5 7/19/5 6/20/5
f 8/21/6 5/22/6 9/23/6 10/21/6
f 13/24/7 11/25/7 12/26/7 14/27/7
f 16/28/8 12/29/8 11/30/8 15/31/8
f 14/29/9 17/32/9 18/33/9 13/34/9
f 17/20/10 16/35/10 15/36/10 18/37/10
f 12/38/6 16/39/6 8/21/6 10/21/6 9/23/6 5/22/6
f 5/40/11 6/41/11 14/42/11 12/43/11
f 11/42/12 13/44/12 18/45/12 15/46/12
f 17/47/13 14/48/13 6/49/13 7/50/13
f 16/51/14 17/52/14 7/53/14 8/54/14
